<svg id="Group_30" data-name="Group 30" xmlns="http://www.w3.org/2000/svg" width="23.124" height="23.124" viewBox="0 0 23.124 23.124">
  <path id="Path_16" data-name="Path 16" d="M11.562,4.336A7.513,7.513,0,0,1,17.2,7.009l-5.275,5.2L8.888,9.177c-.506.434-.939.939-1.445,1.373l4.48,4.48L18.21,8.816a6.657,6.657,0,0,1,.578,2.746,7.226,7.226,0,1,1-7.226-7.226Zm0-4.336A11.562,11.562,0,1,1,0,11.562,11.6,11.6,0,0,1,11.562,0Zm0,2.457a9.1,9.1,0,1,1-9.1,9.1A9.067,9.067,0,0,1,11.562,2.457Z" fill="#fff" fill-rule="evenodd"/>
</svg>
