<svg xmlns="http://www.w3.org/2000/svg" width="22" height="28" viewBox="0 0 22 28">
  <path id="liveChatIcon" d="M181.761,80.342c3.679,0,6.661,2.7,6.661,6.02s-2.982,6.019-6.661,6.019-6.661-2.7-6.661-6.019S178.082,80.342,181.761,80.342ZM179.553,67.62c-3.33,0-6.031,1.933-6.031,4.319a3.644,3.644,0,0,0,1.349,2.722l-.838,2.635,3.2-1.37a8.122,8.122,0,0,0,2.318.331c3.331,0,6.031-1.934,6.031-4.319S182.884,67.62,179.553,67.62Zm4.417,0c3.33,0,6.031,1.933,6.031,4.319a3.644,3.644,0,0,1-1.35,2.722l.839,2.635-3.2-1.37a8.121,8.121,0,0,1-2.318.331q-.23,0-.455-.013a5.405,5.405,0,0,0,2.98-3.031,3.874,3.874,0,0,0,0-2.551,5.406,5.406,0,0,0-2.98-3.031C183.665,67.624,183.816,67.62,183.97,67.62Zm-3.579,25.057h3.8V95.62h-3.8V94.7a9.693,9.693,0,0,1-5.223-2.378,8.407,8.407,0,0,1-2.088-2.877,3.207,3.207,0,0,1,0-6.163,9.722,9.722,0,0,1,17.362,0,3.216,3.216,0,0,1-.437,6.271l-1.339.252a9.46,9.46,0,0,0,.767-4.582c-.46-3.358-4-5.874-7.673-5.874-6.817,0-10.415,7.523-5.488,11.975a8.044,8.044,0,0,0,4.119,1.945Zm6.444-5.859a6.827,6.827,0,0,1-6.478-2.754,9.614,9.614,0,0,1-3.673,2.722,5.174,5.174,0,0,0,10.151.033Z" transform="translate(-170.761 -67.62)" fill="#fff"/>
</svg>
