<svg xmlns="http://www.w3.org/2000/svg" width="61.894" height="25.378" viewBox="0 0 61.894 25.378">
  <g id="Group_2243" data-name="Group 2243" transform="translate(0)">
    <path id="Path_809" data-name="Path 809" d="M23.38,102.71H59.893a12.689,12.689,0,0,1,0,25.378H23.38a12.663,12.663,0,0,1-8.958-3.726l-.008-.008a12.686,12.686,0,0,1,8.964-21.644ZM50.6,111.234a1.319,1.319,0,1,1,1.714-2l5.954,5.105a1.325,1.325,0,0,1,0,2.133l-5.952,5.1a1.319,1.319,0,1,1-1.714-2l3.315-2.843H25.791a1.323,1.323,0,1,1,0-2.647H53.911L50.6,111.234Zm9.3-5.879H23.378a10.044,10.044,0,0,0,0,20.089H59.891a10.044,10.044,0,0,0,0-20.089Z" transform="translate(-10.69 -102.71)"/>
  </g>
</svg>
