<svg id="Group_2246" data-name="Group 2246" xmlns="http://www.w3.org/2000/svg" width="61.894" height="25.378" viewBox="0 0 61.894 25.378">
  <g id="Group_2243" data-name="Group 2243" transform="translate(0)">
    <path id="Path_809" data-name="Path 809" d="M59.893,102.71H23.38a12.689,12.689,0,0,0,0,25.378H59.893a12.663,12.663,0,0,0,8.958-3.726l.008-.008A12.686,12.686,0,0,0,59.9,102.71Zm-27.216,8.524a1.319,1.319,0,1,0-1.714-2l-5.954,5.105a1.325,1.325,0,0,0,0,2.133l5.952,5.1a1.319,1.319,0,1,0,1.714-2l-3.315-2.843H57.483a1.323,1.323,0,1,0,0-2.647H29.362l3.315-2.843Zm-9.3-5.879H59.9a10.044,10.044,0,0,1,0,20.089H23.382a10.044,10.044,0,0,1,0-20.089Z" transform="translate(-10.69 -102.71)"/>
  </g>
</svg>
